<?xml version="1.0" encoding="utf-8"?>
<!-- Generator: Adobe Illustrator 22.0.1, SVG Export Plug-In . SVG Version: 6.00 Build 0)  -->
<svg version="1.0" id="Layer_1" xmlns="http://www.w3.org/2000/svg" xmlns:xlink="http://www.w3.org/1999/xlink" x="0px" y="0px"
	 width="512px" height="512px" viewBox="0 0 512 512" enable-background="new 0 0 512 512" xml:space="preserve">
<rect x="37.5" y="58.4" fill="#DEDEDE" width="437" height="395.2"/>
<path fill="#9F89FF" d="M466.5,66.4v379.2h-421V66.4H466.5 M482.5,50.4h-453v411.2h453V50.4L482.5,50.4z"/>
<path fill="#853AFF" d="M104.9,189.4c13.6-0.1,23.2,3.9,32.9,13.5c9,9,7.9,23.4,8.2,35c0.6,25.7,9.4,53.2,34.1,65.6
	c25.1,12.6,49.5,4,75.5,9.7c25.9,5.6,41.1,23.9,50.5,47.7c10.2,25.7,16.8,50.5,46.6,58c11.9,2.9,25.5-1.2,36-6.4
	c5.6-2.8,10.9-6,15.8-9.9c8.9-6.9-3.8-2.2-8-1.1c-25.7,6.8-51.6,5.7-60-23.6c-7.4-25.8-13-49.5-31-70.2
	c-15.5-17.9-41.5-25.3-64.3-25.3c-24.7,0-47.1,6.3-64-16.2c-6.3-8.4-6.5-20-6.9-30c-0.5-13-1.7-24.7-7.7-36.5
	c-6-11.6-16.9-17.3-28.8-21.4C128.6,176.7,99.3,180.3,104.9,189.4"/>
<g>
	<circle fill="#00D03C" cx="89.6" cy="120.1" r="22.5"/>
	<circle fill="#00D03C" cx="249.2" cy="120.1" r="22.5"/>
	<rect x="124.4" y="104.1" fill="#858585" width="82" height="32"/>
	<rect x="284" y="104.1" fill="#858585" width="160.9" height="32"/>
</g>
</svg>
